<?xml version="1.0" encoding="UTF-8" standalone="no"?>
<svg
   width="390"
   height="363.41455"
   preserveAspectRatio="xMidYMid"
   version="1.0"
   viewBox="0 0 292.5 272.56091"
   zoomAndPan="magnify"
   id="svg30"
   sodipodi:docname="drop-in-rec-favicon.svg"
   inkscape:version="1.4.2 (f4327f4, 2025-05-13)"
   inkscape:export-filename="drop-in-rec-favicon.png"
   inkscape:export-xdpi="96"
   inkscape:export-ydpi="96"
   xmlns:inkscape="http://www.inkscape.org/namespaces/inkscape"
   xmlns:sodipodi="http://sodipodi.sourceforge.net/DTD/sodipodi-0.dtd"
   xmlns="http://www.w3.org/2000/svg"
   xmlns:svg="http://www.w3.org/2000/svg">
  <sodipodi:namedview
     id="namedview30"
     pagecolor="#ffffff"
     bordercolor="#000000"
     borderopacity="0.25"
     inkscape:showpageshadow="2"
     inkscape:pageopacity="0.0"
     inkscape:pagecheckerboard="0"
     inkscape:deskcolor="#d1d1d1"
     inkscape:zoom="1.2968448"
     inkscape:cx="82.8935"
     inkscape:cy="284.15121"
     inkscape:window-width="2560"
     inkscape:window-height="1369"
     inkscape:window-x="-8"
     inkscape:window-y="-8"
     inkscape:window-maximized="1"
     inkscape:current-layer="svg30"
     showgrid="true">
    <inkscape:grid
       id="grid30"
       units="px"
       originx="0"
       originy="0"
       spacingx="0.75"
       spacingy="0.74999999"
       empcolor="#0099e5"
       empopacity="0.30196078"
       color="#0099e5"
       opacity="0.14901961"
       empspacing="5"
       enabled="true"
       visible="true"
       dotted="false" />
    <inkscape:grid
       type="modular"
       id="grid31"
       units="px"
       originx="0"
       originy="0"
       spacingx="113.38583"
       spacingy="113.38582"
       empcolor="#0047cb"
       empopacity="0.30196078"
       color="#0099e5"
       opacity="0.14901961"
       empspacing="0"
       marginx="0"
       marginy="0"
       gapx="28.346457"
       gapy="28.346456"
       enabled="false"
       visible="true" />
    <inkscape:grid
       id="grid32"
       units="px"
       originx="0"
       originy="0"
       spacingx="0.75"
       spacingy="0.74999999"
       empcolor="#0099e5"
       empopacity="0.30196078"
       color="#0099e5"
       opacity="0.14901961"
       empspacing="5"
       enabled="false"
       visible="true" />
    <inkscape:grid
       type="axonomgrid"
       id="grid33"
       units="px"
       originx="0"
       originy="0"
       spacingx="2.8346457"
       spacingy="2.8346456"
       empcolor="#0099e5"
       empopacity="0.30196078"
       color="#0099e5"
       opacity="0.14901961"
       empspacing="5"
       dotted="false"
       gridanglex="30"
       gridanglez="30"
       enabled="false"
       visible="true" />
    <inkscape:grid
       id="grid34"
       units="px"
       originx="0"
       originy="0"
       spacingx="0.75"
       spacingy="0.74999999"
       empcolor="#0099e5"
       empopacity="0.30196078"
       color="#0099e5"
       opacity="0.14901961"
       empspacing="5"
       enabled="false"
       visible="true" />
    <inkscape:grid
       id="grid35"
       units="px"
       originx="0"
       originy="0"
       spacingx="0.75"
       spacingy="0.74999999"
       empcolor="#0099e5"
       empopacity="0.30196078"
       color="#0099e5"
       opacity="0.14901961"
       empspacing="5"
       enabled="false"
       visible="true" />
    <inkscape:grid
       type="modular"
       id="grid36"
       units="px"
       originx="0"
       originy="0"
       spacingx="113.38583"
       spacingy="113.38582"
       empcolor="#0047cb"
       empopacity="0.30196078"
       color="#0099e5"
       opacity="0.14901961"
       empspacing="0"
       marginx="0"
       marginy="0"
       gapx="28.346457"
       gapy="28.346456"
       enabled="false"
       visible="true" />
    <inkscape:grid
       type="axonomgrid"
       id="grid37"
       units="px"
       originx="0"
       originy="0"
       spacingx="2.8346457"
       spacingy="2.8346456"
       empcolor="#0099e5"
       empopacity="0.30196078"
       color="#0099e5"
       opacity="0.14901961"
       empspacing="5"
       dotted="false"
       gridanglex="30"
       gridanglez="30"
       enabled="false"
       visible="true" />
    <inkscape:grid
       type="axonomgrid"
       id="grid38"
       units="px"
       originx="0"
       originy="0"
       spacingx="2.8346457"
       spacingy="2.8346456"
       empcolor="#0099e5"
       empopacity="0.30196078"
       color="#0099e5"
       opacity="0.14901961"
       empspacing="5"
       dotted="false"
       gridanglex="30"
       gridanglez="30"
       enabled="false"
       visible="true" />
    <inkscape:grid
       type="modular"
       id="grid39"
       units="px"
       originx="0"
       originy="0"
       spacingx="113.38583"
       spacingy="113.38582"
       empcolor="#0047cb"
       empopacity="0.30196078"
       color="#0099e5"
       opacity="0.14901961"
       empspacing="0"
       marginx="0"
       marginy="0"
       gapx="28.346457"
       gapy="28.346456"
       enabled="false"
       visible="true" />
    <inkscape:grid
       id="grid40"
       units="px"
       originx="0"
       originy="0"
       spacingx="0.75"
       spacingy="0.74999999"
       empcolor="#0099e5"
       empopacity="0.30196078"
       color="#0099e5"
       opacity="0.14901961"
       empspacing="5"
       enabled="false"
       visible="true" />
  </sodipodi:namedview>
  <defs
     id="defs12">
    <clipPath
       id="ee99ce914c">
      <path
         d="m 31.5,0 h 144 v 144 h -144 z"
         id="path1" />
    </clipPath>
    <clipPath
       id="12e0999432">
      <path
         d="m 103.5,0 c -39.766,0 -72,32.234 -72,72 0,39.766 32.234,72 72,72 39.766,0 72,-32.234 72,-72 0,-39.766 -32.234,-72 -72,-72 z"
         id="path2" />
    </clipPath>
    <clipPath
       id="ff1767cd20">
      <path
         d="m 0.5,0 h 144 V 144 H 0.5 Z"
         id="path3" />
    </clipPath>
    <clipPath
       id="68775b27e6">
      <path
         d="m 72.5,0 c -39.766,0 -72,32.234 -72,72 0,39.766 32.234,72 72,72 39.766,0 72,-32.234 72,-72 0,-39.766 -32.234,-72 -72,-72 z"
         id="path4" />
    </clipPath>
    <clipPath
       id="967b1ca997">
      <rect
         width="145"
         height="144"
         id="rect4"
         x="0"
         y="0" />
    </clipPath>
    <clipPath
       id="6344cb8a01">
      <path
         d="M 180,0 H 324 V 144 H 180 Z"
         id="path5" />
    </clipPath>
    <clipPath
       id="2db6a0abd6">
      <path
         d="m 252,0 c -39.766,0 -72,32.234 -72,72 0,39.766 32.234,72 72,72 39.766,0 72,-32.234 72,-72 C 324,32.234 291.766,0 252,0 Z"
         id="path6" />
    </clipPath>
    <clipPath
       id="ee8444bc07">
      <path
         d="M 0,0 H 144 V 144 H 0 Z"
         id="path7" />
    </clipPath>
    <clipPath
       id="3c0a2ecd82">
      <path
         d="M 72,0 C 32.234,0 0,32.234 0,72 c 0,39.766 32.234,72 72,72 39.766,0 72,-32.234 72,-72 C 144,32.234 111.766,0 72,0 Z"
         id="path8" />
    </clipPath>
    <clipPath
       id="886ba6cf62">
      <rect
         width="144"
         height="144"
         id="rect8"
         x="0"
         y="0" />
    </clipPath>
    <clipPath
       id="2cfd04c7da">
      <path
         d="m 328.5,0 h 144 v 144 h -144 z"
         id="path9" />
    </clipPath>
    <clipPath
       id="9b60b8b4a2">
      <path
         d="m 400.5,0 c -39.766,0 -72,32.234 -72,72 0,39.766 32.234,72 72,72 39.766,0 72,-32.234 72,-72 0,-39.766 -32.234,-72 -72,-72 z"
         id="path10" />
    </clipPath>
    <clipPath
       id="5d130f6bbb">
      <path
         d="m 0.5,0 h 144 V 144 H 0.5 Z"
         id="path11" />
    </clipPath>
    <clipPath
       id="2b5599abba">
      <path
         d="m 72.5,0 c -39.766,0 -72,32.234 -72,72 0,39.766 32.234,72 72,72 39.766,0 72,-32.234 72,-72 0,-39.766 -32.234,-72 -72,-72 z"
         id="path12" />
    </clipPath>
    <clipPath
       id="a27b9fb08d">
      <rect
         width="145"
         height="144"
         id="rect12"
         x="0"
         y="0" />
    </clipPath>
  </defs>
  <g
     transform="matrix(0.93493776,0,0,0.93493776,49.464022,0.77013735)"
     clip-path="url(#ee99ce914c)"
     id="g18">
    <g
       clip-path="url(#12e0999432)"
       id="g17">
      <g
         transform="translate(31)"
         id="g16">
        <g
           clip-path="url(#967b1ca997)"
           id="g15">
          <g
             clip-path="url(#ff1767cd20)"
             id="g14">
            <g
               clip-path="url(#68775b27e6)"
               id="g13">
              <path
                 d="m 0.5,0 h 144 V 144 H 0.5 Z"
                 fill="#13a4ec"
                 id="path13" />
            </g>
          </g>
        </g>
      </g>
      <path
         transform="matrix(0.75,0,0,0.75,31.5,2e-6)"
         d="M 96,-2.6667e-6 C 42.979,-2.6667e-6 0,42.978997 0,95.999997 0,149.021 42.979,192 96,192 149.021,192 192,149.021 192,95.999997 192,42.978997 149.021,-2.6667e-6 96,-2.6667e-6 Z"
         fill="none"
         stroke="#13a4ec"
         stroke-width="18"
         id="path16" />
    </g>
  </g>
  <path
     d="m 153.03362,116.21626 -6.80747,-6.80747 17.26363,-17.263634 -41.33079,-41.327052 -17.26363,17.259886 -6.803823,-6.807469 6.803823,-7.048589 -6.803823,-6.807469 10.207653,-10.21139 -6.80383,-7.052236 6.80383,-6.803822 7.05223,6.803822 10.21139,-10.20765 6.80747,6.807469 7.04859,-6.807469 6.80747,6.807469 -17.25989,17.259886 41.32706,41.330793 17.26363,-17.263626 6.80746,6.807469 -6.80746,7.052236 6.80746,6.807469 -10.21139,10.207653 6.80747,7.052234 -6.80747,6.80747 -7.05223,-6.80747 -10.20765,10.21139 -6.80747,-6.80747 z"
     fill="#ffffff"
     id="path18"
     style="stroke-width:0.934938" />
  <g
     transform="matrix(0.93493776,0,0,0.93493776,-167.98683,137.83357)"
     clip-path="url(#6344cb8a01)"
     id="g24">
    <g
       clip-path="url(#2db6a0abd6)"
       id="g23">
      <g
         transform="translate(180)"
         id="g22">
        <g
           clip-path="url(#886ba6cf62)"
           id="g21">
          <g
             clip-path="url(#ee8444bc07)"
             id="g20">
            <g
               clip-path="url(#3c0a2ecd82)"
               id="g19">
              <rect
                 x="-290.88"
                 y="-31.68"
                 width="725.76001"
                 height="207.36"
                 fill="#13a4ec"
                 id="rect18" />
            </g>
          </g>
        </g>
      </g>
      <path
         transform="matrix(0.75,0,0,0.75,180,2e-6)"
         d="M 96,-2.6667e-6 C 42.979,-2.6667e-6 0,42.978997 0,95.999997 0,149.021 42.979,192 96,192 149.021,192 192,149.021 192,95.999997 192,42.978997 149.021,-2.6667e-6 96,-2.6667e-6 Z"
         fill="none"
         stroke="#13a4ec"
         stroke-width="18"
         id="path22" />
    </g>
  </g>
  <path
     d="m 18.991377,248.90419 v -9.72523 c 3.08239,0 5.39047,-0.81075 6.93172,-2.43234 1.5375,-1.62156 4.57605,-2.43233 9.11564,-2.43233 4.53959,0 7.65845,0.81077 9.3606,2.43233 1.70187,1.62157 4.01004,2.43234 6.92807,2.43234 2.91804,0 5.22612,-0.81075 6.92808,-2.43234 1.70187,-1.62156 4.82447,-2.43233 9.3606,-2.43233 4.53959,0 7.65845,0.81077 9.36059,2.43233 1.70187,1.62157 4.01004,2.43234 6.92808,2.43234 2.91803,0 5.22985,-0.81075 6.92807,-2.43234 1.70187,-1.62156 4.82447,-2.43233 9.360603,-2.43233 4.53959,0 7.57814,0.81077 9.11929,2.43233 1.53751,1.62157 3.84933,2.43234 6.92808,2.43234 v 9.72523 c -4.78062,0 -7.92145,-0.81077 -9.42231,-2.43234 -1.49739,-1.62155 -3.70684,-2.43233 -6.62487,-2.43233 -2.914393,0 -5.226123,0.81077 -6.928083,2.43233 -1.70186,1.62156 -4.82072,2.43234 -9.36059,2.43234 -4.53595,0 -7.65845,-0.81077 -9.3606,-2.43234 -1.70187,-1.62155 -4.01004,-2.43233 -6.92808,-2.43233 -2.91803,0 -5.22611,0.81077 -6.92807,2.43233 -1.70187,1.62156 -4.82073,2.43234 -9.3606,2.43234 -4.53987,0 -7.65845,-0.81077 -9.3606,-2.43234 -1.70186,-1.62155 -4.01004,-2.43233 -6.92807,-2.43233 -2.91804,0 -5.12757,0.81077 -6.62488,2.43233 -1.50104,1.62156 -4.63813,2.43234 -9.4223,2.43234 z m 0,-21.88316 v -9.72148 c 3.08239,0 5.39047,-0.81077 6.93172,-2.43234 1.5375,-1.62156 4.57605,-2.43233 9.11564,-2.43233 4.53959,0 7.67668,0.81077 9.4223,2.43233 1.74207,1.62156 4.02828,2.43234 6.866,2.43234 2.91803,0 5.22611,-0.81077 6.92808,-2.43234 1.70186,-1.62156 4.82446,-2.43233 9.36059,-2.43233 4.53959,0 7.65845,0.81077 9.3606,2.43233 1.70187,1.62156 4.01004,2.43234 6.92807,2.43234 2.91804,0 5.22986,-0.81077 6.92808,-2.43234 1.70187,-1.62156 4.82447,-2.43233 9.360603,-2.43233 4.53959,0 7.57814,0.81077 9.11929,2.43233 1.5375,1.62156 3.84932,2.43234 6.92807,2.43234 v 9.72148 c -4.78061,0 -7.92144,-0.81077 -9.4223,-2.42869 -1.4974,-1.62156 -3.70684,-2.43233 -6.62488,-2.43233 -2.914383,0 -5.164033,0.81076 -6.745383,2.43233 -1.58136,1.61791 -4.76239,2.42869 -9.54291,2.42869 -4.61991,0 -7.75709,-0.81077 -9.41857,-2.42869 -1.66166,-1.62156 -3.95161,-2.43233 -6.86964,-2.43233 -3.07875,0 -5.3686,0.81076 -6.866,2.43233 -1.50104,1.61791 -4.64177,2.42869 -9.4223,2.42869 -4.78052,0 -7.96155,-0.81077 -9.54291,-2.42869 -1.57771,-1.62156 -3.82745,-2.43233 -6.74539,-2.43233 -2.91803,0 -5.12757,0.81076 -6.62487,2.43233 -1.50104,1.61791 -4.63813,2.42869 -9.4223,2.42869 z m 23.82595,-24.79736 16.16788,-16.16414 -4.86093,-4.86457 c -2.67701,-2.67336 -5.51099,-4.6199 -8.50943,-5.83242 -2.99834,-1.21617 -6.68695,-1.82603 -11.06218,-1.82603 v -12.15419 c 6.07709,0 11.10238,0.66833 15.07213,2.00497 3.96984,1.33668 7.85927,3.91141 11.66802,7.72053 l 31.11941,31.11567 c -1.37689,0.8911 -2.71347,1.60323 -4.01005,2.12913 -1.29657,0.5259 -2.79752,0.78885 -4.49938,0.78885 -2.91804,0 -5.22612,-0.81076 -6.92808,-2.43233 -1.70187,-1.61791 -4.82073,-2.42869 -9.3606,-2.42869 -4.53594,0 -7.65845,0.81077 -9.36059,2.42869 -1.70187,1.62156 -4.01005,2.43233 -6.92808,2.43233 -1.70187,0 -3.19926,-0.26295 -4.49574,-0.78885 -1.29648,-0.5259 -2.63681,-1.23804 -4.01369,-2.12913 z m 47.65284,-40.84182 c 3.40374,0 6.27792,1.1942 8.62995,3.58633 2.348283,2.38849 3.524243,5.24444 3.524243,8.56786 0,3.40374 -1.17596,6.28166 -3.524243,8.62995 -2.35193,2.35193 -5.22612,3.52789 -8.62995,3.52789 -3.40373,0 -6.28166,-1.17596 -8.63359,-3.52789 -2.34828,-2.34829 -3.52424,-5.22612 -3.52424,-8.62995 0,-3.32342 1.17596,-6.17937 3.52424,-8.56786 2.35193,-2.39213 5.22986,-3.58633 8.63359,-3.58633 z"
     fill="#ffffff"
     id="path24"
     style="stroke-width:0.934938" />
  <g
     transform="matrix(0.93493776,0,0,0.93493776,-149.8763,137.73806)"
     clip-path="url(#2cfd04c7da)"
     id="g30">
    <g
       clip-path="url(#9b60b8b4a2)"
       id="g29">
      <g
         transform="translate(328)"
         id="g28">
        <g
           clip-path="url(#a27b9fb08d)"
           id="g27">
          <g
             clip-path="url(#5d130f6bbb)"
             id="g26">
            <g
               clip-path="url(#2b5599abba)"
               id="g25">
              <path
                 d="m 0.5,0 h 144 V 144 H 0.5 Z"
                 fill="#13a4ec"
                 id="path25" />
            </g>
          </g>
        </g>
      </g>
      <path
         transform="matrix(0.75,0,0,0.75,328.5,2e-6)"
         d="M 96,-2.6667e-6 C 42.979,-2.6667e-6 0,42.978997 0,95.999997 0,149.021 42.979,192 96,192 149.021,192 192,149.021 192,95.999997 192,42.978997 149.021,-2.6667e-6 96,-2.6667e-6 Z"
         fill="none"
         stroke="#13a4ec"
         stroke-width="18"
         id="path28" />
    </g>
  </g>
  <path
     d="m 197.84575,217.08342 c 1.5375,1.54116 3.23937,2.67701 5.10195,3.40374 1.86623,0.73042 3.80913,1.09565 5.83607,1.09565 2.02695,0 3.96984,-0.36521 5.83607,-1.09565 1.86258,-0.72677 3.56445,-1.86258 5.1056,-3.40374 l 4.37523,-4.37522 c 1.54115,-1.53751 2.67336,-3.23938 3.40373,-5.10561 0.73042,-1.86258 1.09201,-3.80912 1.09201,-5.83242 0,-2.02694 -0.36156,-3.95161 -1.09201,-5.77399 -0.73042,-1.82602 -1.86258,-3.50601 -3.40373,-5.04716 l -18.47624,-18.47624 c -0.97514,-0.9715 -2.12923,-1.4572 -3.46582,-1.4572 -1.33668,0 -2.49076,0.48573 -3.46581,1.4572 l -19.20269,19.32703 c -0.97515,0.97149 -1.46085,2.10725 -1.46085,3.40373 0,1.29648 0.48573,2.43234 1.46085,3.40374 z m 55.91395,36.59066 -28.56702,-28.56702 c -2.34829,2.10726 -4.96321,3.64841 -7.8374,4.6199 -2.87783,0.97149 -5.77399,1.4572 -8.69202,1.4572 -3.24311,0 -6.38385,-0.60626 -9.42231,-1.82239 -3.03845,-1.21613 -5.77398,-3.03854 -8.20258,-5.47088 l -18.47999,-18.35563 c -1.37688,-1.37688 -2.42869,-2.97647 -3.15906,-4.79885 -0.73042,-1.82603 -1.09565,-3.66673 -1.09565,-5.53296 0,-1.86258 0.3652,-3.70684 1.09565,-5.52932 0.73042,-1.82602 1.78218,-3.4257 3.15906,-4.80249 l 19.33079,-19.32703 c 1.37688,-1.37689 2.97646,-2.43234 4.79884,-3.16271 1.82603,-0.72677 3.66674,-1.09201 5.53297,-1.09201 1.86258,0 3.70684,0.36521 5.52931,1.09201 1.82238,0.73042 3.42571,1.78592 4.8025,3.16271 l 18.35563,18.47624 c 2.43233,2.43233 4.25471,5.16768 5.47088,8.20622 1.21252,3.03855 1.82238,6.17938 1.82238,9.41857 0,2.91803 -0.50764,5.81419 -1.51927,8.69202 -1.01525,2.87783 -2.57473,5.48911 -4.68198,7.84104 l 28.69137,28.68763 z m 4.49939,-63.2102 c -4.70021,0 -8.7139,-1.66167 -12.03359,-4.98509 -3.32342,-3.31978 -4.98508,-7.33347 -4.98508,-12.03359 0,-4.70012 1.66166,-8.71025 4.98508,-12.03358 3.31978,-3.32342 7.33347,-4.98509 12.03359,-4.98509 4.7003,0 8.71025,1.66167 12.03358,4.98509 3.32342,3.32342 4.98509,7.33346 4.98509,12.03358 0,4.70012 -1.66176,8.7139 -4.98509,12.03359 -3.32342,3.32342 -7.33346,4.98509 -12.03358,4.98509 z m 0,-9.72523 c 2.02694,0 3.74704,-0.7085 5.16403,-2.12548 1.42064,-1.417 2.12914,-3.14083 2.12914,-5.16769 0,-2.02329 -0.70851,-3.74704 -2.12914,-5.16403 -1.41699,-1.42064 -3.13718,-2.12913 -5.16403,-2.12913 -2.02685,0 -3.74705,0.7085 -5.16768,2.12913 -1.417,1.41699 -2.12549,3.14083 -2.12549,5.16403 0,2.02695 0.7085,3.75069 2.12549,5.16769 1.42063,1.41699 3.14083,2.12548 5.16768,2.12548 z"
     fill="#ffffff"
     id="path30"
     style="stroke-width:0.934938" />
</svg>
